<svg xmlns="http://www.w3.org/2000/svg" xmlns:xlink="http://www.w3.org/1999/xlink" width="1920" height="251.058" viewBox="0 0 1920 251.058"><defs><style>.a{fill:#92caec;}.b{fill:#86c5ea;}.c{fill:url(#a);}</style><linearGradient id="a" x1="0.5" y1="0.316" x2="0.5" y2="1.086" gradientUnits="objectBoundingBox"><stop offset="0" stop-color="#cce0f4"/><stop offset="0.064" stop-color="#c2dcf2"/><stop offset="0.171" stop-color="#a9d2ee"/><stop offset="0.307" stop-color="#7fc2e7"/><stop offset="0.465" stop-color="#46abdd"/><stop offset="0.567" stop-color="#1e9cd7"/><stop offset="0.865" stop-color="#0075be"/><stop offset="0.994" stop-color="#005b97"/></linearGradient></defs><g transform="translate(0 -829)"><circle class="a" cx="46" cy="46" r="46" transform="translate(1473 929)"/><circle class="b" cx="35" cy="35" r="35" transform="translate(1263 951)"/><path class="c" d="M2370,718s-93.49-17-147.159,49c0,0-67.52-27-112.534,13,0,0-25.969-16-45.013,0,0,0-41.551-4-50.207,27,0,0-31.163-15-53.67,0,0,0-39.82-1-39.82,15,0,0-62.326-47-140.234,0,0,0-72.714-10-64.058,16,0,0-186.979-170-415.51-11,0,0-167.935-44-252.768,37,0,0-41.551-40-112.534-37,0,0-57.133-67-188.711-54,0,0-64.058-108-235.455-57,0,0-17.313-40-62.326-32V934H2370Z" transform="translate(-450 146.058)"/></g></svg>