<svg xmlns="http://www.w3.org/2000/svg" width="119.764" height="156.927" viewBox="0 0 119.764 156.927"><defs><style>.a{fill:none;stroke:#ccc;stroke-miterlimit:10;}.b{fill:#73bcc7;}.c{fill:#89ceda;}.d{fill:#a0e1ed;}</style></defs><line class="a" y2="96.945" transform="translate(34.954)"/><path class="a" d="M48.744,140.3c-4.176-10.72-14.155-4.483,0,0" transform="translate(-13.79 -44.74)"/><path class="a" d="M52.51,139.613c2.6-7,6.444-10.246,7.2-6.537C60.128,135.1,56.125,138.272,52.51,139.613Z" transform="translate(-17.483 -43.789)"/><g transform="translate(0 29.724)"><path class="b" d="M120.64,204.02l1.061,14.916,19.151,5.917-7.191-20.712Z" transform="translate(-40.166 -97.65)"/><path class="c" d="M38.14,173.114l68.508,19.372L88.57,149.14S55.023,157.692,38.14,173.114Z" transform="translate(-12.699 -79.378)"/><path class="b" d="M133.012,78.782c.44-.027,24.621-3.8,24.621-3.8L113.74,124.443Z" transform="translate(-37.869 -54.688)"/><path class="d" d="M13.415,149.53S-1.147,168.181.074,167.614s19.592-7.224,20.045-7.931S13.415,149.53,13.415,149.53Z" transform="translate(-0.001 -79.508)"/><path class="c" d="M17.35,145.288s12.708,24.081,13.868,25.682c7.511-9.486,14.776-28.25,14.776-28.25Z" transform="translate(-5.777 -77.241)"/><path class="d" d="M38.14,148.907l37.2-72.477,13.228,48.5Z" transform="translate(-12.699 -55.171)"/><path class="c" d="M93.91,65.819,144.594,44.56l-37.456,69.762Z" transform="translate(-31.267 -44.56)"/><path class="d" d="M117.12,156.23c.44,1.728,10.853,44.867,10.853,44.867l20.132,7.291C142.408,195.58,117.12,156.23,117.12,156.23Z" transform="translate(-38.994 -81.739)"/></g></svg>