<svg xmlns="http://www.w3.org/2000/svg" width="186.346" height="303.855" viewBox="0 0 186.346 303.855"><defs><style>.a{fill:none;stroke:#ccc;stroke-miterlimit:10;}.b{fill:#d15e87;}.c{fill:#e8749d;}.d{fill:#ff8cb4;}</style></defs><line class="a" y2="182.449" transform="translate(87.84)"/><path class="a" d="M127,267.883c-5.343-11.994-18.118-5.01,0,0" transform="translate(-39.16 -86.981)"/><path class="a" d="M131.68,265.9c.494-8.325,3.956-13.028,6.31-9.312C139.271,258.629,135.589,263.3,131.68,265.9Z" transform="translate(-43.84 -84.998)"/><g transform="translate(0 138.476)"><path class="b" d="M177.87,412.02l.053,19.612L206,441.024,197.355,413.3Z" transform="translate(-59.218 -275.652)"/><path class="c" d="M56.25,366.623l100.614,31.259L134.243,339.6C134.25,339.6,83.126,347.9,56.25,366.623Z" transform="translate(-18.727 -251.541)"/><path class="b" d="M206.733,251.088c.667,0,37.269-2.848,37.269-2.848L173.18,309.183Z" transform="translate(-57.657 -221.124)"/><path class="d" d="M21.946,332.04S-1.788,355.194.106,354.553,30.191,346.8,30.945,345.9,21.946,332.04,21.946,332.04Z" transform="translate(0.001 -249.024)"/><path class="c" d="M29.08,327.487S45.63,360.1,47.2,362.295C59.425,350.534,72.232,326.6,72.232,326.6Z" transform="translate(-9.681 -247.212)"/><path class="d" d="M56.25,334.378l63.171-91.628,14.829,64.605Z" transform="translate(-18.727 -219.296)"/><path class="c" d="M150.95,231.044l78.093-23.454-63.265,88.059Z" transform="translate(-50.255 -207.59)"/><path class="d" d="M177.51,349.18c.48,2.3,11.64,59.649,11.64,59.649l29.4,11.28C211.33,402.852,177.51,349.18,177.51,349.18Z" transform="translate(-59.098 -254.73)"/></g></svg>