<svg xmlns="http://www.w3.org/2000/svg" width="29.701" height="29.701" viewBox="0 0 29.701 29.701"><defs><style>.a{fill:#fff;fill-rule:evenodd;}</style></defs><path class="a" d="M14.85,2.64a45.534,45.534,0,0,1,5.94.165,7.653,7.653,0,0,1,2.805.5A5.795,5.795,0,0,1,26.4,6.105a7.653,7.653,0,0,1,.5,2.805c0,1.485.165,1.98.165,5.94a45.534,45.534,0,0,1-.165,5.94,7.653,7.653,0,0,1-.5,2.805A5.795,5.795,0,0,1,23.6,26.4a7.653,7.653,0,0,1-2.805.5c-1.485,0-1.98.165-5.94.165A45.534,45.534,0,0,1,8.91,26.9a7.653,7.653,0,0,1-2.805-.5A5.795,5.795,0,0,1,3.3,23.6a7.653,7.653,0,0,1-.5-2.805c0-1.485-.165-1.98-.165-5.94a45.534,45.534,0,0,1,.165-5.94,7.653,7.653,0,0,1,.5-2.805,5.926,5.926,0,0,1,1.155-1.65A2.79,2.79,0,0,1,6.105,3.3a7.653,7.653,0,0,1,2.805-.5,45.534,45.534,0,0,1,5.94-.165m0-2.64A48.754,48.754,0,0,0,8.745.165a10.187,10.187,0,0,0-3.63.66,6.459,6.459,0,0,0-2.64,1.65,6.459,6.459,0,0,0-1.65,2.64,7.518,7.518,0,0,0-.66,3.63A48.754,48.754,0,0,0,0,14.85a48.754,48.754,0,0,0,.165,6.105,10.187,10.187,0,0,0,.66,3.63,6.459,6.459,0,0,0,1.65,2.64,6.459,6.459,0,0,0,2.64,1.65,10.187,10.187,0,0,0,3.63.66,48.754,48.754,0,0,0,6.105.165,48.754,48.754,0,0,0,6.105-.165,10.187,10.187,0,0,0,3.63-.66,6.923,6.923,0,0,0,4.29-4.29,10.187,10.187,0,0,0,.66-3.63c0-1.65.165-2.145.165-6.105a48.754,48.754,0,0,0-.165-6.105,10.187,10.187,0,0,0-.66-3.63,6.459,6.459,0,0,0-1.65-2.64,6.459,6.459,0,0,0-2.64-1.65,10.187,10.187,0,0,0-3.63-.66A48.754,48.754,0,0,0,14.85,0m0,7.26a7.468,7.468,0,0,0-7.59,7.59,7.59,7.59,0,1,0,7.59-7.59m0,12.54A4.862,4.862,0,0,1,9.9,14.85,4.862,4.862,0,0,1,14.85,9.9a4.862,4.862,0,0,1,4.95,4.95,4.862,4.862,0,0,1-4.95,4.95m7.92-14.685A1.815,1.815,0,1,0,24.586,6.93a1.831,1.831,0,0,0-1.815-1.815"/></svg>